<mxfile host="app.diagrams.net" agent="Mozilla/5.0 (Windows NT 10.0; Win64; x64) AppleWebKit/537.36 (KHTML, like Gecko) Chrome/135.0.0.0 Safari/537.36" version="26.2.14">
  <diagram name="Página-1" id="xSkgfI-xZtVzishUI651">
    <mxGraphModel dx="837" dy="417" grid="1" gridSize="10" guides="1" tooltips="1" connect="1" arrows="1" fold="1" page="1" pageScale="1" pageWidth="827" pageHeight="1169" math="0" shadow="0">
      <root>
        <mxCell id="0" />
        <mxCell id="1" parent="0" />
        <mxCell id="IZ47Hmiua7pvUDi3Zz36-1" value="" style="rounded=1;whiteSpace=wrap;html=1;fillColor=#f5f5f5;fontColor=#333333;strokeColor=#666666;" parent="1" vertex="1">
          <mxGeometry x="259" y="10" width="310" height="110" as="geometry" />
        </mxCell>
        <mxCell id="IZ47Hmiua7pvUDi3Zz36-2" value="" style="rounded=1;whiteSpace=wrap;html=1;fillColor=#f5f5f5;fontColor=#333333;strokeColor=#666666;" parent="1" vertex="1">
          <mxGeometry y="210" width="310" height="110" as="geometry" />
        </mxCell>
        <mxCell id="IZ47Hmiua7pvUDi3Zz36-3" value="" style="rounded=1;whiteSpace=wrap;html=1;fillColor=#f5f5f5;fontColor=#333333;strokeColor=#666666;" parent="1" vertex="1">
          <mxGeometry x="517" y="210" width="310" height="110" as="geometry" />
        </mxCell>
        <mxCell id="IZ47Hmiua7pvUDi3Zz36-4" value="Servidor" style="image;points=[];aspect=fixed;html=1;align=center;shadow=0;dashed=0;image=img/lib/allied_telesis/computer_and_terminals/Server_Desktop.svg;" parent="1" vertex="1">
          <mxGeometry x="350" y="20" width="23.67" height="30" as="geometry" />
        </mxCell>
        <mxCell id="IZ47Hmiua7pvUDi3Zz36-5" value="Desktop" style="verticalLabelPosition=bottom;sketch=0;aspect=fixed;html=1;verticalAlign=top;strokeColor=none;align=center;outlineConnect=0;shape=mxgraph.citrix.desktop;" parent="1" vertex="1">
          <mxGeometry x="652.02" y="250" width="39.96" height="44" as="geometry" />
        </mxCell>
        <mxCell id="IZ47Hmiua7pvUDi3Zz36-6" value="Estación remota" style="text;html=1;align=center;verticalAlign=middle;whiteSpace=wrap;rounded=0;" parent="1" vertex="1">
          <mxGeometry x="730" y="210" width="90" height="30" as="geometry" />
        </mxCell>
        <mxCell id="IZ47Hmiua7pvUDi3Zz36-7" value="Software de Visualización" style="rounded=1;whiteSpace=wrap;html=1;fillColor=#dae8fc;strokeColor=#6c8ebf;" parent="1" vertex="1">
          <mxGeometry x="532.02" y="220" width="87.98" height="30" as="geometry" />
        </mxCell>
        <mxCell id="IZ47Hmiua7pvUDi3Zz36-10" style="edgeStyle=orthogonalEdgeStyle;rounded=0;orthogonalLoop=1;jettySize=auto;html=1;entryX=0;entryY=0.5;entryDx=0;entryDy=0;" parent="1" source="IZ47Hmiua7pvUDi3Zz36-8" target="IZ47Hmiua7pvUDi3Zz36-9" edge="1">
          <mxGeometry relative="1" as="geometry">
            <Array as="points">
              <mxPoint x="244" y="95" />
            </Array>
          </mxGeometry>
        </mxCell>
        <mxCell id="IZ47Hmiua7pvUDi3Zz36-12" value="WiFi" style="edgeLabel;html=1;align=center;verticalAlign=middle;resizable=0;points=[];" parent="IZ47Hmiua7pvUDi3Zz36-10" vertex="1" connectable="0">
          <mxGeometry x="-0.4829" y="2" relative="1" as="geometry">
            <mxPoint as="offset" />
          </mxGeometry>
        </mxCell>
        <mxCell id="IZ47Hmiua7pvUDi3Zz36-8" value="Software de control robot" style="rounded=1;whiteSpace=wrap;html=1;fillColor=#dae8fc;strokeColor=#6c8ebf;" parent="1" vertex="1">
          <mxGeometry x="200" y="220" width="87.98" height="30" as="geometry" />
        </mxCell>
        <mxCell id="IZ47Hmiua7pvUDi3Zz36-11" style="edgeStyle=orthogonalEdgeStyle;rounded=0;orthogonalLoop=1;jettySize=auto;html=1;exitX=1;exitY=0.5;exitDx=0;exitDy=0;" parent="1" source="IZ47Hmiua7pvUDi3Zz36-9" target="IZ47Hmiua7pvUDi3Zz36-7" edge="1">
          <mxGeometry relative="1" as="geometry" />
        </mxCell>
        <mxCell id="IZ47Hmiua7pvUDi3Zz36-13" value="WiFi" style="edgeLabel;html=1;align=center;verticalAlign=middle;resizable=0;points=[];" parent="IZ47Hmiua7pvUDi3Zz36-11" vertex="1" connectable="0">
          <mxGeometry x="0.466" y="2" relative="1" as="geometry">
            <mxPoint as="offset" />
          </mxGeometry>
        </mxCell>
        <mxCell id="IZ47Hmiua7pvUDi3Zz36-9" value="Sincronización de Software" style="rounded=1;whiteSpace=wrap;html=1;fillColor=#dae8fc;strokeColor=#6c8ebf;" parent="1" vertex="1">
          <mxGeometry x="370" y="80" width="87.98" height="30" as="geometry" />
        </mxCell>
        <mxCell id="IZ47Hmiua7pvUDi3Zz36-14" value="Nube" style="text;html=1;align=center;verticalAlign=middle;whiteSpace=wrap;rounded=0;" parent="1" vertex="1">
          <mxGeometry x="259" y="20" width="60" height="10" as="geometry" />
        </mxCell>
        <mxCell id="34XKwY5tDWJAUkgPlV9H-2" value="Robot de inspección" style="rounded=0;whiteSpace=wrap;html=1;" vertex="1" parent="1">
          <mxGeometry x="40" y="260" width="100" height="35" as="geometry" />
        </mxCell>
        <mxCell id="34XKwY5tDWJAUkgPlV9H-3" value="" style="shape=cylinder3;whiteSpace=wrap;html=1;boundedLbl=1;backgroundOutline=1;size=15;" vertex="1" parent="1">
          <mxGeometry x="457.98" y="20" width="30.5" height="40" as="geometry" />
        </mxCell>
      </root>
    </mxGraphModel>
  </diagram>
</mxfile>
